<svg version="1.1" id="Layer_1" xmlns="http://www.w3.org/2000/svg" xmlns:xlink="http://www.w3.org/1999/xlink" x="0px" y="0px" width="32px" height="32px" viewBox="0 0 32 32" enable-background="new 0 0 32 32" xml:space="preserve">
  <g id="icon">
    <path d="M1.224,6.393c0.189,-0.239,0.482,-0.393,0.81,-0.393h27.933c0.326,0,0.617,0.152,0.807,0.389c-4.164,3.91,-10.386,9.675,-10.992,10.024l-0.041,0.026c-3.357,2.319,-4.266,2.32,-7.482,0.008C10.438,15.114,3.313,8.377,1.224,6.393zM20.296,17.47c-1.843,1.272,-3.108,1.908,-4.356,1.908c-1.252,0,-2.487,-0.641,-4.27,-1.922C9.898,16.157,3.539,10.167,1,7.76v18.207c0,0.57,0.464,1.033,1.033,1.033h27.933c0.57,0,1.033,-0.464,1.033,-1.033V7.748C28.042,10.522,21.199,16.91,20.296,17.47z" fill="#EAB765"/>
  </g>
</svg>
